<svg xmlns="http://www.w3.org/2000/svg" xmlns:xlink="http://www.w3.org/1999/xlink" width="500" zoomAndPan="magnify" viewBox="0 0 375 374.999991" height="500" preserveAspectRatio="xMidYMid meet" version="1.0"><defs><clipPath id="0eafa92889"><path d="M 14.949219 61.066406 L 359.949219 61.066406 L 359.949219 313 L 14.949219 313 Z M 14.949219 61.066406 " clip-rule="nonzero"/></clipPath></defs><g clip-path="url(#0eafa92889)"><path fill="#ff914d" d="M 331.363281 61.953125 L 247.675781 61.953125 C 245.941406 61.949219 244.210938 62.023438 242.480469 62.167969 C 240.753906 62.3125 239.035156 62.53125 237.324219 62.824219 C 235.617188 63.113281 233.921875 63.476562 232.242188 63.910156 C 230.5625 64.34375 228.90625 64.84375 227.269531 65.417969 C 225.632812 65.992188 224.023438 66.632812 222.441406 67.34375 C 220.859375 68.050781 219.308594 68.824219 217.789062 69.664062 C 216.273438 70.503906 214.792969 71.40625 213.355469 72.371094 C 211.914062 73.335938 210.515625 74.359375 209.160156 75.441406 C 207.804688 76.523438 206.5 77.664062 205.242188 78.855469 C 203.980469 80.046875 202.777344 81.289062 201.621094 82.585938 C 200.46875 83.878906 199.371094 85.21875 198.332031 86.609375 C 197.289062 87.996094 196.308594 89.421875 195.390625 90.890625 C 194.46875 92.363281 193.613281 93.867188 192.820312 95.410156 C 192.027344 96.953125 191.300781 98.523438 190.640625 100.128906 C 189.980469 101.730469 189.390625 103.359375 188.867188 105.011719 C 188.34375 106.664062 187.890625 108.335938 187.507812 110.027344 C 187.128906 108.335938 186.675781 106.664062 186.152344 105.011719 C 185.628906 103.359375 185.039062 101.730469 184.378906 100.128906 C 183.71875 98.523438 182.992188 96.953125 182.199219 95.410156 C 181.40625 93.867188 180.546875 92.363281 179.628906 90.890625 C 178.707031 89.421875 177.726562 87.996094 176.6875 86.609375 C 175.648438 85.21875 174.550781 83.878906 173.398438 82.585938 C 172.242188 81.289062 171.035156 80.046875 169.777344 78.855469 C 168.519531 77.660156 167.214844 76.523438 165.859375 75.441406 C 164.503906 74.359375 163.105469 73.335938 161.664062 72.371094 C 160.222656 71.40625 158.746094 70.503906 157.226562 69.664062 C 155.710938 68.824219 154.160156 68.050781 152.578125 67.34375 C 150.996094 66.632812 149.386719 65.992188 147.75 65.417969 C 146.113281 64.84375 144.457031 64.34375 142.777344 63.910156 C 141.097656 63.476562 139.402344 63.113281 137.695312 62.824219 C 135.984375 62.53125 134.265625 62.3125 132.539062 62.167969 C 130.808594 62.023438 129.078125 61.949219 127.34375 61.953125 L 43.710938 61.953125 C 42.765625 61.953125 41.828125 61.996094 40.890625 62.089844 C 39.953125 62.179688 39.023438 62.320312 38.097656 62.503906 C 37.175781 62.6875 36.261719 62.914062 35.359375 63.1875 C 34.460938 63.460938 33.574219 63.777344 32.703125 64.140625 C 31.832031 64.5 30.984375 64.902344 30.152344 65.34375 C 29.320312 65.789062 28.515625 66.273438 27.730469 66.796875 C 26.949219 67.320312 26.191406 67.878906 25.464844 68.476562 C 24.738281 69.074219 24.039062 69.707031 23.375 70.375 C 22.707031 71.039062 22.074219 71.734375 21.476562 72.464844 C 20.882812 73.191406 20.320312 73.949219 19.796875 74.730469 C 19.273438 75.515625 18.789062 76.320312 18.347656 77.152344 C 17.902344 77.984375 17.5 78.832031 17.140625 79.703125 C 16.777344 80.574219 16.460938 81.460938 16.1875 82.363281 C 15.914062 83.261719 15.6875 84.175781 15.503906 85.101562 C 15.320312 86.023438 15.179688 86.953125 15.089844 87.890625 C 14.996094 88.828125 14.949219 89.769531 14.949219 90.710938 L 14.949219 237.941406 C 14.949219 238.882812 14.996094 239.820312 15.089844 240.757812 C 15.179688 241.695312 15.320312 242.625 15.503906 243.550781 C 15.6875 244.472656 15.914062 245.386719 16.1875 246.289062 C 16.460938 247.1875 16.777344 248.074219 17.140625 248.945312 C 17.5 249.816406 17.902344 250.664062 18.347656 251.496094 C 18.789062 252.324219 19.273438 253.132812 19.796875 253.914062 C 20.320312 254.699219 20.878906 255.453125 21.476562 256.183594 C 22.074219 256.910156 22.707031 257.605469 23.375 258.273438 C 24.039062 258.9375 24.738281 259.570312 25.464844 260.167969 C 26.191406 260.765625 26.949219 261.324219 27.730469 261.847656 C 28.515625 262.371094 29.320312 262.855469 30.152344 263.300781 C 30.984375 263.742188 31.832031 264.144531 32.703125 264.507812 C 33.574219 264.867188 34.460938 265.183594 35.359375 265.457031 C 36.261719 265.730469 37.175781 265.960938 38.097656 266.144531 C 39.023438 266.328125 39.953125 266.464844 40.890625 266.558594 C 41.828125 266.648438 42.765625 266.695312 43.710938 266.695312 L 97.425781 266.695312 C 158.625 266.695312 176.917969 281.421875 185.660156 311.726562 C 185.753906 312.09375 185.953125 312.386719 186.253906 312.613281 C 186.554688 312.839844 186.894531 312.945312 187.273438 312.933594 L 187.617188 312.933594 C 187.992188 312.945312 188.332031 312.839844 188.636719 312.613281 C 188.9375 312.386719 189.132812 312.09375 189.230469 311.726562 C 198.03125 281.421875 216.324219 266.695312 277.460938 266.695312 L 331.1875 266.695312 C 332.128906 266.695312 333.066406 266.648438 334.003906 266.558594 C 334.941406 266.464844 335.871094 266.328125 336.796875 266.144531 C 337.722656 265.960938 338.632812 265.734375 339.535156 265.460938 C 340.4375 265.1875 341.320312 264.871094 342.191406 264.507812 C 343.0625 264.148438 343.914062 263.746094 344.746094 263.304688 C 345.574219 262.859375 346.382812 262.375 347.164062 261.851562 C 347.949219 261.328125 348.703125 260.769531 349.433594 260.171875 C 350.160156 259.574219 350.859375 258.941406 351.523438 258.277344 C 352.191406 257.609375 352.824219 256.914062 353.421875 256.183594 C 354.019531 255.457031 354.578125 254.699219 355.101562 253.917969 C 355.625 253.132812 356.109375 252.328125 356.554688 251.496094 C 356.996094 250.664062 357.398438 249.8125 357.761719 248.945312 C 358.121094 248.074219 358.4375 247.1875 358.710938 246.285156 C 358.984375 245.382812 359.214844 244.472656 359.398438 243.546875 C 359.582031 242.625 359.71875 241.691406 359.8125 240.753906 C 359.902344 239.816406 359.949219 238.878906 359.949219 237.933594 L 359.949219 90.710938 C 359.949219 89.773438 359.90625 88.835938 359.8125 87.902344 C 359.722656 86.96875 359.585938 86.042969 359.402344 85.121094 C 359.21875 84.203125 358.992188 83.292969 358.722656 82.394531 C 358.449219 81.496094 358.136719 80.613281 357.777344 79.746094 C 357.417969 78.878906 357.019531 78.03125 356.578125 77.203125 C 356.140625 76.375 355.660156 75.570312 355.140625 74.789062 C 354.621094 74.007812 354.0625 73.253906 353.46875 72.527344 C 352.875 71.800781 352.25 71.105469 351.585938 70.441406 C 350.925781 69.773438 350.234375 69.144531 349.511719 68.546875 C 348.789062 67.949219 348.035156 67.386719 347.257812 66.863281 C 346.480469 66.339844 345.679688 65.851562 344.851562 65.40625 C 344.027344 64.960938 343.179688 64.558594 342.316406 64.195312 C 341.449219 63.832031 340.570312 63.511719 339.671875 63.234375 C 338.777344 62.957031 337.867188 62.726562 336.949219 62.539062 C 336.03125 62.351562 335.105469 62.207031 334.171875 62.109375 C 333.238281 62.015625 332.300781 61.960938 331.363281 61.957031 Z M 159.902344 220.859375 C 159.902344 221.132812 159.851562 221.398438 159.746094 221.652344 C 159.640625 221.90625 159.492188 222.128906 159.296875 222.324219 C 159.105469 222.519531 158.878906 222.667969 158.625 222.773438 C 158.371094 222.878906 158.109375 222.929688 157.835938 222.929688 L 61.773438 222.929688 C 61.5 222.929688 61.234375 222.878906 60.980469 222.773438 C 60.726562 222.667969 60.503906 222.519531 60.308594 222.324219 C 60.117188 222.128906 59.964844 221.90625 59.859375 221.652344 C 59.753906 221.398438 59.703125 221.132812 59.703125 220.859375 L 59.703125 207.167969 C 59.703125 206.894531 59.753906 206.632812 59.859375 206.378906 C 59.964844 206.125 60.117188 205.902344 60.308594 205.707031 C 60.503906 205.511719 60.726562 205.363281 60.980469 205.257812 C 61.234375 205.152344 61.5 205.101562 61.773438 205.101562 L 157.835938 205.101562 C 158.109375 205.101562 158.371094 205.152344 158.625 205.257812 C 158.878906 205.363281 159.105469 205.511719 159.296875 205.707031 C 159.492188 205.902344 159.640625 206.125 159.746094 206.378906 C 159.851562 206.632812 159.902344 206.894531 159.902344 207.167969 Z M 159.902344 184.398438 C 159.902344 184.671875 159.851562 184.9375 159.746094 185.191406 C 159.640625 185.445312 159.492188 185.667969 159.296875 185.859375 C 159.105469 186.054688 158.878906 186.203125 158.625 186.308594 C 158.371094 186.414062 158.109375 186.46875 157.835938 186.46875 L 61.773438 186.46875 C 61.5 186.46875 61.234375 186.414062 60.980469 186.308594 C 60.726562 186.203125 60.503906 186.054688 60.308594 185.859375 C 60.117188 185.667969 59.964844 185.445312 59.859375 185.191406 C 59.753906 184.9375 59.703125 184.671875 59.703125 184.398438 L 59.703125 170.707031 C 59.703125 170.433594 59.753906 170.167969 59.859375 169.914062 C 59.964844 169.660156 60.117188 169.4375 60.308594 169.242188 C 60.503906 169.050781 60.726562 168.902344 60.980469 168.796875 C 61.234375 168.691406 61.5 168.636719 61.773438 168.636719 L 157.835938 168.636719 C 158.109375 168.636719 158.371094 168.691406 158.625 168.796875 C 158.878906 168.902344 159.105469 169.050781 159.296875 169.242188 C 159.492188 169.4375 159.640625 169.660156 159.746094 169.914062 C 159.851562 170.167969 159.902344 170.433594 159.902344 170.707031 Z M 159.902344 147.933594 C 159.902344 148.210938 159.851562 148.472656 159.746094 148.726562 C 159.640625 148.980469 159.492188 149.203125 159.296875 149.398438 C 159.105469 149.59375 158.878906 149.742188 158.625 149.847656 C 158.371094 149.953125 158.109375 150.003906 157.835938 150.003906 L 61.773438 150.003906 C 61.5 150.003906 61.234375 149.953125 60.980469 149.847656 C 60.726562 149.742188 60.503906 149.59375 60.308594 149.398438 C 60.117188 149.203125 59.964844 148.980469 59.859375 148.726562 C 59.753906 148.472656 59.703125 148.210938 59.703125 147.933594 L 59.703125 134.246094 C 59.703125 133.972656 59.753906 133.707031 59.859375 133.453125 C 59.964844 133.199219 60.117188 132.976562 60.308594 132.78125 C 60.503906 132.585938 60.726562 132.4375 60.980469 132.332031 C 61.234375 132.226562 61.5 132.175781 61.773438 132.175781 L 157.835938 132.175781 C 158.109375 132.175781 158.371094 132.226562 158.625 132.332031 C 158.878906 132.4375 159.105469 132.585938 159.296875 132.78125 C 159.492188 132.976562 159.640625 133.199219 159.746094 133.453125 C 159.851562 133.707031 159.902344 133.972656 159.902344 134.246094 Z M 315.152344 220.804688 C 315.152344 221.082031 315.101562 221.34375 314.996094 221.597656 C 314.890625 221.851562 314.742188 222.074219 314.546875 222.269531 C 314.355469 222.464844 314.128906 222.613281 313.875 222.71875 C 313.621094 222.824219 313.359375 222.875 313.085938 222.875 L 217.023438 222.875 C 216.75 222.875 216.484375 222.824219 216.230469 222.71875 C 215.976562 222.613281 215.753906 222.464844 215.558594 222.269531 C 215.367188 222.074219 215.214844 221.851562 215.109375 221.597656 C 215.003906 221.34375 214.953125 221.082031 214.953125 220.804688 L 214.953125 207.117188 C 214.953125 206.839844 215.003906 206.578125 215.109375 206.324219 C 215.214844 206.070312 215.367188 205.847656 215.558594 205.652344 C 215.753906 205.457031 215.976562 205.308594 216.230469 205.203125 C 216.484375 205.097656 216.75 205.046875 217.023438 205.046875 L 313.085938 205.046875 C 313.359375 205.046875 313.621094 205.097656 313.875 205.203125 C 314.128906 205.308594 314.355469 205.457031 314.546875 205.652344 C 314.742188 205.847656 314.890625 206.070312 314.996094 206.324219 C 315.101562 206.578125 315.152344 206.839844 315.152344 207.117188 Z M 315.152344 184.34375 C 315.152344 184.617188 315.101562 184.882812 314.996094 185.136719 C 314.890625 185.390625 314.742188 185.613281 314.546875 185.808594 C 314.355469 186 314.128906 186.152344 313.875 186.257812 C 313.621094 186.359375 313.359375 186.414062 313.085938 186.414062 L 217.023438 186.414062 C 216.75 186.414062 216.484375 186.359375 216.230469 186.257812 C 215.976562 186.152344 215.753906 186 215.558594 185.808594 C 215.367188 185.613281 215.214844 185.390625 215.109375 185.136719 C 215.003906 184.882812 214.953125 184.617188 214.953125 184.34375 L 214.953125 170.652344 C 214.953125 170.378906 215.003906 170.113281 215.109375 169.863281 C 215.214844 169.609375 215.367188 169.382812 215.558594 169.191406 C 215.753906 168.996094 215.976562 168.847656 216.230469 168.742188 C 216.484375 168.636719 216.75 168.585938 217.023438 168.585938 L 313.085938 168.585938 C 313.359375 168.585938 313.621094 168.636719 313.875 168.742188 C 314.128906 168.847656 314.355469 168.996094 314.546875 169.191406 C 314.742188 169.382812 314.890625 169.609375 314.996094 169.863281 C 315.101562 170.113281 315.152344 170.378906 315.152344 170.652344 Z M 315.152344 147.882812 C 315.152344 148.15625 315.101562 148.421875 314.996094 148.671875 C 314.890625 148.925781 314.742188 149.152344 314.546875 149.34375 C 314.355469 149.539062 314.128906 149.6875 313.875 149.792969 C 313.621094 149.898438 313.359375 149.953125 313.085938 149.953125 L 217.023438 149.953125 C 216.75 149.953125 216.484375 149.898438 216.230469 149.792969 C 215.976562 149.6875 215.753906 149.539062 215.558594 149.34375 C 215.367188 149.152344 215.214844 148.925781 215.109375 148.671875 C 215.003906 148.421875 214.953125 148.15625 214.953125 147.882812 L 214.953125 134.246094 C 214.953125 133.972656 215.003906 133.707031 215.109375 133.453125 C 215.214844 133.199219 215.367188 132.976562 215.558594 132.78125 C 215.753906 132.585938 215.976562 132.4375 216.230469 132.332031 C 216.484375 132.226562 216.75 132.175781 217.023438 132.175781 L 313.085938 132.175781 C 313.359375 132.175781 313.621094 132.226562 313.875 132.332031 C 314.128906 132.4375 314.355469 132.585938 314.546875 132.78125 C 314.742188 132.976562 314.890625 133.199219 314.996094 133.453125 C 315.101562 133.707031 315.152344 133.972656 315.152344 134.246094 L 315.152344 147.933594 Z M 315.152344 147.882812 " fill-opacity="1" fill-rule="nonzero"/></g></svg>